<svg version="1.1" id="Layer_1" xmlns="http://www.w3.org/2000/svg" xmlns:xlink="http://www.w3.org/1999/xlink" x="0px" y="0px"
	 width="100%" viewBox="0 0 337 130" enable-background="new 0 0 337 130" xml:space="preserve">
<path fill="#FDFDFD" opacity="1.000000" stroke="none" 
	d="
M259.000000,131.000000 
	C174.000015,131.000000 89.500000,130.973434 5.000200,131.095932 
	C1.576036,131.100891 0.888824,130.425797 0.901622,126.999695 
	C1.054153,86.166946 1.040555,45.333294 0.916237,4.500347 
	C0.907154,1.517223 1.517712,0.915890 4.499978,0.918514 
	C114.499863,1.015295 224.499863,1.015280 334.499756,0.918575 
	C337.481232,0.915954 338.092834,1.516200 338.083801,4.500081 
	C337.959564,45.499695 337.959625,86.499924 338.083740,127.499542 
	C338.092743,130.482330 337.485535,131.103760 334.499695,131.085739 
	C309.500549,130.934937 284.500061,131.000000 259.000000,131.000000 
z"/>
<path fill="#323232" opacity="1.000000" stroke="none" 
	d="
M283.516663,88.847488 
	C283.194580,91.699066 283.342804,94.267487 282.764496,96.660309 
	C281.869598,100.362915 280.641754,104.548233 276.169769,104.967606 
	C272.468475,105.314713 267.755646,98.850487 267.790192,94.550674 
	C267.848969,87.226669 267.937195,79.902893 267.990540,72.578857 
	C268.012024,69.632919 267.182556,66.976089 264.997223,64.899284 
	C261.244293,61.332752 256.443817,62.474689 254.913742,67.401199 
	C253.192551,72.943054 253.819229,78.626198 254.476593,84.240593 
	C255.078644,89.382538 255.554825,94.508301 255.102036,99.679329 
	C254.745972,103.745911 249.024094,107.719490 245.087601,106.671341 
	C237.758759,104.719940 233.816833,99.458481 233.903503,91.845497 
	C233.977386,85.354919 233.979584,78.863556 234.026215,72.372635 
	C234.044922,69.768188 233.168411,67.522743 231.556808,65.483398 
	C229.813858,63.277828 227.522949,62.539478 224.906815,63.026039 
	C222.490814,63.475380 221.497528,65.382263 220.883286,67.604340 
	C219.428528,72.867126 219.854828,78.165718 220.454025,83.469467 
	C221.070480,88.926003 221.835510,94.358109 221.071487,99.881424 
	C220.399292,104.741013 214.679276,108.056969 210.073120,106.077545 
	C209.036179,105.631943 208.072845,104.387428 206.908127,105.106544 
	C202.493393,107.832230 202.350403,104.309013 201.733246,101.630936 
	C200.517838,96.356949 201.578018,91.017059 201.432480,85.707672 
	C201.181702,76.559212 201.249313,67.401939 199.557709,58.348446 
	C199.191864,56.390423 197.594559,54.027477 200.211929,52.526466 
	C202.722748,51.086555 204.890137,52.860222 206.800064,54.112251 
	C208.338074,55.120480 209.018997,56.495888 211.233322,54.679169 
	C222.885986,45.118912 231.750351,45.568874 243.603271,56.058102 
	C250.142746,49.079689 258.011627,45.669178 267.346130,49.334488 
	C277.627869,53.371742 282.759918,61.450161 283.112396,72.506729 
	C285.251923,72.241554 285.482239,70.517357 285.794525,69.182030 
	C287.642944,61.278614 292.755432,55.694874 298.720825,50.722843 
	C303.169586,47.014854 316.518219,46.466877 320.554260,50.273582 
	C323.758179,53.295433 322.401855,56.861141 319.819702,60.315033 
	C319.612915,60.886600 319.520050,61.101688 319.123352,61.491222 
	C315.341949,64.721336 312.154846,68.073128 308.929016,71.384689 
	C306.096954,74.291992 304.907562,77.804909 305.300293,81.817070 
	C305.613861,85.020546 307.269775,85.807480 309.962006,83.969398 
	C312.632141,82.146385 313.735718,79.662148 313.353424,76.284492 
	C312.757568,71.019981 313.353485,65.997643 318.386505,62.268299 
	C318.974457,61.668388 319.395111,61.467846 320.177277,61.566704 
	C324.701202,59.263306 327.697693,60.314682 328.954437,65.096733 
	C331.195068,73.622559 329.714478,82.301033 329.619293,90.917831 
	C329.595428,93.077690 329.391510,95.238747 329.198669,97.392838 
	C328.880890,100.942642 329.547638,103.994949 332.978424,105.899971 
	C333.784637,106.347641 334.892944,106.974487 334.463013,108.134361 
	C334.058380,109.226021 332.821960,109.162735 331.860138,109.124718 
	C326.863556,108.927238 323.026367,106.512543 320.011993,102.673615 
	C319.104584,101.517975 318.366608,100.229263 317.551056,99.001572 
	C302.987183,108.722115 290.400848,105.131523 284.875092,89.491035 
	C283.272003,86.307556 283.407593,83.262611 283.518921,80.207680 
	C283.310699,82.969124 283.857788,85.725288 283.516663,88.847488 
z"/>
<path fill="#323232" opacity="1.000000" stroke="none" 
	d="
M65.888054,80.258377 
	C66.768944,78.984444 66.732018,77.818558 66.558823,76.280777 
	C68.715881,73.685425 70.971329,73.502876 73.731720,75.621277 
	C79.109573,92.687805 71.342613,105.146515 54.055779,106.663361 
	C34.091164,108.415169 11.811565,98.142487 8.481881,72.985588 
	C5.719441,52.114422 13.436296,34.809345 30.522058,22.126595 
	C37.731529,16.775009 45.914761,13.562319 54.835667,12.289357 
	C61.338814,11.361396 71.512375,16.212435 74.425560,21.673656 
	C78.111717,28.583963 75.674431,35.384724 68.487976,38.374069 
	C63.121502,40.606354 57.993958,42.236328 51.814888,40.434616 
	C46.927269,39.009472 42.775059,42.543839 39.084625,45.804676 
	C31.818880,52.224621 27.915991,65.516312 30.914940,74.010918 
	C34.167995,83.225288 47.640434,89.125343 56.706844,85.391479 
	C58.549412,84.632645 59.738956,83.056458 59.250343,81.587624 
	C57.949200,77.676186 62.233585,78.770729 63.026619,76.866745 
	C63.350273,76.089684 63.774055,76.616791 63.940109,76.978279 
	C64.286064,77.731384 64.517029,78.537315 64.923004,79.651009 
	C65.506699,80.351189 65.419685,80.940514 65.626930,81.411346 
	C65.527710,81.088509 65.533791,80.763206 65.888054,80.258377 
z"/>
<path fill="#323232" opacity="1.000000" stroke="none" 
	d="
M146.207031,87.315079 
	C145.797745,90.424141 146.070511,93.313278 145.521622,96.036819 
	C144.736389,99.933151 143.559906,104.403595 138.808807,104.766808 
	C134.674500,105.082870 130.086700,98.231689 130.309586,93.439842 
	C130.564697,87.955688 130.847794,82.467934 130.878677,76.980385 
	C130.893539,74.339836 130.564697,71.652611 130.021286,69.064240 
	C129.222595,65.259743 126.854729,62.778278 122.787399,62.780975 
	C118.408028,62.783878 117.437469,66.110329 117.030434,69.581131 
	C116.328438,75.567123 116.654808,81.550056 117.539124,87.495651 
	C118.081444,91.141991 118.149139,94.793991 117.911865,98.452065 
	C117.501579,104.777534 111.795250,108.131950 105.991928,105.510681 
	C105.282738,105.190353 104.747772,104.333191 103.790840,104.784645 
	C97.289871,107.851601 98.149590,102.291870 98.066597,99.332489 
	C97.749657,88.031982 98.621109,76.699585 97.055763,65.430962 
	C96.689911,62.797268 96.273109,60.168549 95.995979,57.525352 
	C95.803047,55.685055 94.438271,53.626556 96.795403,52.131958 
	C98.940865,50.771572 101.418404,52.374599 102.183632,53.218563 
	C105.510681,56.887981 107.331459,54.751637 110.081261,52.471676 
	C122.256905,42.376396 142.432358,50.367153 144.958176,66.185158 
	C145.533447,69.787651 145.674149,73.459541 146.088501,77.537079 
	C147.564011,79.685394 147.290421,81.736595 147.314697,84.153931 
	C147.240387,85.460144 147.014191,86.283035 146.207031,87.315079 
z"/>
<path fill="#333333" opacity="1.000000" stroke="none" 
	d="
M146.212341,87.238930 
	C145.920975,87.088264 145.949982,86.567558 145.968018,85.785492 
	C147.537872,83.342949 146.040787,80.898560 146.692017,78.300064 
	C147.270462,69.519028 150.118118,62.088966 156.158722,56.012409 
	C161.626572,50.512028 168.006256,47.090378 175.875778,49.304245 
	C184.652679,51.773373 189.068161,58.538116 190.551895,67.071693 
	C191.776932,74.117393 184.838135,82.656387 177.600754,83.593376 
	C174.089645,84.047935 171.012970,82.939407 168.900314,79.894814 
	C167.184937,77.422806 167.284882,75.236053 170.096313,73.608757 
	C170.813507,73.193634 171.812851,73.030022 172.263321,72.433998 
	C173.645645,70.605003 173.982224,67.950806 172.643677,66.580978 
	C171.085159,64.986031 169.738663,67.342514 168.842972,68.548721 
	C166.212646,72.090843 164.271744,75.963829 165.215927,80.582535 
	C167.142059,90.004662 175.469803,92.997368 184.558197,87.495544 
	C186.101776,86.561104 187.749283,85.412048 188.684814,83.940147 
	C190.614426,80.904228 192.695496,80.972160 195.623260,82.826485 
	C197.207794,82.848633 198.105026,83.413864 198.794067,84.879013 
	C194.550430,100.745819 182.424789,109.019516 168.156418,105.977348 
	C159.628967,104.159195 153.957855,98.618515 149.953064,91.071068 
	C149.127869,89.515915 149.375107,86.857750 146.212341,87.238930 
z"/>
<path fill="#363636" opacity="1.000000" stroke="none" 
	d="
M162.191010,23.235924 
	C158.897018,22.037264 155.965927,20.893970 152.952469,20.042152 
	C150.164368,19.254028 149.010208,17.642128 149.903580,14.899087 
	C150.818100,12.091167 152.833984,11.676006 155.468185,12.591983 
	C158.881943,13.779034 162.355927,14.792900 166.320480,16.044359 
	C166.320480,12.504627 166.175781,9.222121 166.371201,5.959990 
	C166.502075,3.775105 167.394577,2.338330 170.229828,2.889908 
	C172.776474,3.385341 174.677277,3.830394 174.413284,7.053954 
	C174.211472,9.518143 174.373169,12.012100 174.373169,14.803646 
	C177.447083,13.513932 180.420151,12.183774 183.457886,11.022863 
	C185.297165,10.319958 187.078308,10.202647 187.674362,12.779634 
	C188.181503,14.972161 189.309372,17.330711 186.301071,18.626001 
	C183.123642,19.994118 178.126190,20.629374 177.563446,23.370188 
	C177.111664,25.570482 181.433304,28.585449 183.250061,31.481482 
	C184.273956,33.113632 187.022079,35.047009 183.651474,37.234100 
	C180.797577,39.085934 178.481445,39.860706 176.455475,35.950970 
	C175.101425,33.337914 172.922455,31.152309 171.035141,28.446362 
	C170.445435,27.572876 170.136124,26.930185 170.002686,25.835812 
	C170.349075,21.499098 168.360641,22.211538 165.735260,23.649075 
	C164.384323,24.079947 163.446335,23.787577 162.191010,23.235924 
z"/>
<path fill="#343434" opacity="1.000000" stroke="none" 
	d="
M81.956406,60.755569 
	C91.363358,58.071014 94.804298,64.534935 93.928017,71.935020 
	C92.683052,82.448540 91.093727,92.991997 91.755867,103.660858 
	C91.792633,104.253204 91.648613,105.113075 91.253922,105.425674 
	C90.249535,106.221130 89.365707,105.335480 88.611290,104.778992 
	C84.229164,101.546509 81.736282,96.645485 80.578102,91.852585 
	C78.306061,82.450096 78.206924,72.713203 79.887527,63.070374 
	C80.070633,62.019794 80.513382,61.190254 81.956406,60.755569 
z"/>
<path fill="#333333" opacity="1.000000" stroke="none" 
	d="
M87.000366,46.132210 
	C85.810074,45.923775 85.057861,45.469669 84.278046,45.415936 
	C80.980659,45.188709 77.816437,44.837372 77.911591,40.407795 
	C78.003471,36.130695 78.727852,32.328377 83.611565,30.623976 
	C86.644836,29.565372 89.791237,26.862637 92.172272,30.813242 
	C94.187294,34.156555 96.907646,37.594254 93.047218,42.136406 
	C91.312874,44.177029 90.753685,46.705013 87.000366,46.132210 
z"/>
<path fill="#3A3A3A" opacity="1.000000" stroke="none" 
	d="
M170.722702,24.627350 
	C170.971161,25.696789 170.980927,26.503777 170.974167,27.714037 
	C167.931122,31.011997 167.163651,35.266201 164.681686,38.516174 
	C163.189468,40.470127 161.700912,41.681023 159.295898,40.293995 
	C156.792877,38.850441 156.656113,36.945251 157.944763,34.418903 
	C159.699890,30.978018 162.395172,27.851978 162.008545,23.335758 
	C162.915237,23.034016 163.966431,23.014612 165.411942,22.995907 
	C167.537308,22.865322 169.036972,23.525145 170.722702,24.627350 
z"/>
<path fill="#3F3F3F" opacity="1.000000" stroke="none" 
	d="
M250.703461,114.018677 
	C254.314041,114.268318 257.038177,115.289711 257.894104,118.737556 
	C258.479218,121.094437 258.110016,123.366257 256.132782,125.079025 
	C253.349228,127.490257 249.972488,127.108566 246.687592,126.935730 
	C245.406525,126.868332 245.333405,125.685081 245.316422,124.685875 
	C245.282715,122.702393 245.520630,120.686890 245.247574,118.740562 
	C244.670074,114.624207 246.554398,113.408714 250.703461,114.018677 
z"/>
<path fill="#3A3A3A" opacity="1.000000" stroke="none" 
	d="
M270.374817,117.771194 
	C272.356018,114.595161 274.957001,113.306015 278.158783,114.110100 
	C281.533783,114.957695 283.647675,117.324860 283.389557,120.926758 
	C283.136627,124.456337 280.947754,126.677414 277.384399,127.055267 
	C273.609680,127.455536 270.992584,125.671013 269.989197,122.005814 
	C269.663269,120.815216 270.085632,119.419769 270.374817,117.771194 
z"/>
<path fill="#3C3C3C" opacity="1.000000" stroke="none" 
	d="
M239.065918,114.107834 
	C244.598984,115.844925 241.550079,119.924065 241.515121,122.779457 
	C241.475876,125.981941 238.678726,127.339256 235.369141,127.112335 
	C232.139343,126.890884 230.601044,124.958229 230.188919,122.041130 
	C229.934906,120.243263 230.112686,118.386185 230.068283,116.556374 
	C230.031784,115.051476 230.330246,113.950241 232.226791,114.013374 
	C234.339294,114.083672 233.762817,115.629097 234.045609,116.847176 
	C234.590317,119.193176 232.397430,123.561821 235.916489,123.491493 
	C239.707184,123.415726 237.294678,118.943604 237.978165,116.498688 
	C238.194046,115.726440 238.412582,114.954933 239.065918,114.107834 
z"/>
<path fill="#3C3C3C" opacity="1.000000" stroke="none" 
	d="
M210.480133,115.103699 
	C210.654144,117.986847 207.951004,116.424103 206.925995,117.909477 
	C207.836395,118.698158 208.706390,119.401497 209.518860,120.166000 
	C211.297714,121.839867 212.017685,123.844887 210.226181,125.793175 
	C208.452850,127.721748 206.004028,127.356621 203.741013,126.725929 
	C202.953201,126.506371 202.466431,125.684181 202.809387,124.738617 
	C203.547440,122.703758 205.548477,124.790184 206.926834,123.200104 
	C205.019135,121.058441 200.818161,119.287872 203.255508,115.515053 
	C204.897461,112.973511 207.798431,113.523575 210.480133,115.103699 
z"/>
<path fill="#3C3C3C" opacity="1.000000" stroke="none" 
	d="
M219.143127,114.009613 
	C220.746948,114.009697 221.918793,113.928726 223.074020,114.032547 
	C224.255035,114.138687 225.937943,113.335938 226.242599,115.403069 
	C226.499451,117.145882 224.990601,116.811996 224.047363,117.338028 
	C221.622009,118.690651 223.190170,121.168793 222.820816,123.124138 
	C222.515228,124.741966 223.553772,127.235237 220.480942,126.964455 
	C217.741486,126.723068 219.155045,124.429253 218.920822,123.035507 
	C218.508072,120.579224 220.252319,117.086670 215.640167,116.795715 
	C215.462387,116.784500 215.083633,115.559158 215.263519,115.070847 
	C215.901337,113.339424 217.519272,114.285446 219.143127,114.009613 
z"/>
<path fill="#3F3F3F" opacity="1.000000" stroke="none" 
	d="
M261.921387,121.916054 
	C261.925110,119.625175 261.910065,117.804329 261.939697,115.984215 
	C261.956787,114.937706 262.144165,114.026741 263.540619,114.014267 
	C264.896912,114.002167 265.810181,114.431168 265.826691,115.925728 
	C265.855865,118.573410 265.875305,121.221870 265.842682,123.869308 
	C265.825043,125.301949 266.182800,126.995544 263.822662,127.023262 
	C261.306976,127.052795 262.088623,125.194534 261.931580,123.874832 
	C261.873352,123.385216 261.921631,122.882912 261.921387,121.916054 
z"/>
<path fill="#C9C9C9" opacity="1.000000" stroke="none" 
	d="
M74.068771,75.516174 
	C71.885674,74.797005 69.682724,74.467407 67.032761,75.801712 
	C65.403748,72.793755 68.438202,72.739914 69.820511,72.201881 
	C72.105659,71.312439 73.371490,73.101112 74.068771,75.516174 
z"/>
<path fill="#9F9F9F" opacity="1.000000" stroke="none" 
	d="
M199.185150,85.104813 
	C197.948959,84.743660 197.011002,84.200455 196.030380,83.234177 
	C196.388016,81.144753 197.307129,79.363602 199.090225,80.240234 
	C201.014633,81.186340 199.870956,83.286057 199.185150,85.104813 
z"/>
<path fill="#A4A4A4" opacity="1.000000" stroke="none" 
	d="
M283.608459,89.261475 
	C282.516541,85.725586 283.261932,82.254456 283.435822,78.756287 
	C284.100952,81.927292 283.729156,85.228661 284.839844,88.716896 
	C284.478119,89.193733 284.161560,89.253822 283.608459,89.261475 
z"/>
<path fill="#E3E3E3" opacity="1.000000" stroke="none" 
	d="
M146.668320,77.979607 
	C146.207367,80.656029 148.937714,83.357285 146.373230,85.776917 
	C145.981689,83.317001 146.006332,81.109879 146.096558,78.438705 
	C146.162155,77.974670 146.499603,77.984573 146.668320,77.979607 
z"/>
<path fill="#C9C9C9" opacity="1.000000" stroke="none" 
	d="
M65.860229,80.063393 
	C65.997871,80.504997 65.864799,80.928673 65.731720,81.352348 
	C65.480835,81.085167 65.229942,80.817993 65.014915,80.265648 
	C65.230347,80.002144 65.409927,80.023811 65.860229,80.063393 
z"/>
<path fill="#F5F5F5" opacity="1.000000" stroke="none" 
	d="
M319.231750,62.133755 
	C314.289124,66.738007 313.773621,72.169449 314.593140,78.153542 
	C315.072296,81.652306 310.949493,86.239891 307.513977,86.546227 
	C304.931396,86.776497 303.987000,85.196007 303.790985,82.933838 
	C303.398499,78.404755 304.597076,74.204262 307.666199,70.976517 
	C310.962524,67.509872 314.212830,63.893497 318.692749,61.257996 
	C319.119629,61.381096 319.225372,61.589409 319.231750,62.133755 
z"/>
<path fill="#FDFDFD" opacity="1.000000" stroke="none" 
	d="
M319.373230,62.380974 
	C319.114807,62.253407 319.097321,62.037033 319.046875,61.496719 
	C319.013916,61.172779 319.269318,60.797184 319.487549,60.734348 
	C319.844666,60.845097 319.983582,61.018677 320.302917,61.473259 
	C320.193604,61.933567 319.903870,62.112865 319.373230,62.380974 
z"/>
<path fill="#EAEAEA" opacity="1.000000" stroke="none" 
	d="
M171.071716,24.519531 
	C169.179001,25.123602 167.680206,24.217588 165.948273,23.337158 
	C166.190887,19.670944 168.322418,20.438049 170.404266,21.012690 
	C172.560944,21.607986 172.442459,22.727234 171.071716,24.519531 
z"/>
<path fill="#E3E3E3" opacity="1.000000" stroke="none" 
	d="
M252.373734,117.653122 
	C253.186081,118.469978 253.899658,119.060631 254.036697,119.763672 
	C254.495346,122.116478 253.395538,123.516434 251.019623,123.844460 
	C249.401855,124.067802 248.901291,122.975632 249.167969,121.749756 
	C249.543915,120.021652 247.399521,116.422066 252.373734,117.653122 
z"/>
<path fill="#EAEAEA" opacity="1.000000" stroke="none" 
	d="
M278.265106,123.335510 
	C275.504913,124.554520 274.133881,123.315086 273.464417,121.157303 
	C273.036652,119.778526 273.740265,118.613411 274.908752,117.759064 
	C276.184937,116.825935 277.460327,116.993813 278.530243,117.967911 
	C280.335144,119.611191 280.270050,121.390533 278.265106,123.335510 
z"/>
</svg>